# xmcd CD database file
#
# Track frame offsets:
#	150
#	13451
#	37898
#	55987
#	70614
#	89512
#	100711
#	132502
#	148633
#	162881
#	181720
#	205417
#	233163
#
# Disc length: 3383 seconds
#
# Revision: 0
# Processed by: cddbd v1.5PL3 Copyright (c) Steve Scherf et al.
# Submitted via: CDex 1.50beta9
#
DISCID=b00d350d
DTITLE=Marron - ドラマCd 秋桜の空に 外伝 秋桜の海に
DYEAR=2003
DGENRE=Vocal
TTITLE0=プロローグ セイレーンに導かれ
TTITLE1=コートジボアール経由、魔法の海
TTITLE2=指輪物語られ
TTITLE3=シャーク･ザ･ドルフィン
TTITLE4=3人の探索者
TTITLE5=獣使いの系譜
TTITLE6=秘剣、敗れたり
TTITLE7=夏の精霊が夜風に乗って祝福を
TTITLE8=靖臣･凉香･鞠音 南海の大決戦
TTITLE9=鞠音大戦争
TTITLE10=オール鞠音大進撃
TTITLE11=Episode III マジカル☆カナ坊Vs.エスパー子鹿
TTITLE12=おもいでを空に (フルコーラスバージョン)
EXTD=YEAR: 2003
EXTT0=
EXTT1=
EXTT2=
EXTT3=
EXTT4=
EXTT5=
EXTT6=
EXTT7=
EXTT8=
EXTT9=
EXTT10=
EXTT11=
EXTT12=
PLAYORDER=
